<svg width="40" height="41" viewBox="0 0 40 41" fill="none" xmlns="http://www.w3.org/2000/svg">
<rect width="40" height="40.1354" rx="11.1782" fill="#3692FF"/>
<path d="M19.3141 11.1746C19.8134 12.9001 18.4932 14.8014 16.9799 15.2423C15.4666 15.6832 13.3991 14.7688 12.8998 13.0433C12.4005 11.3178 13.4487 8.92703 14.962 8.48616C16.9799 7.89828 18.8148 9.44912 19.3141 11.1746Z" fill="#222327"/>
<path d="M20.1463 11.1746C19.647 12.9001 20.9673 14.8014 22.4806 15.2423C23.9939 15.6832 26.0613 14.7688 26.5606 13.0433C27.0599 11.3178 26.0117 8.92703 24.4984 8.48616C22.4806 7.89828 20.6456 9.44912 20.1463 11.1746Z" fill="#222327"/>
<path d="M29.5167 23.7798C29.5167 28.1686 25.2133 29.8 19.3432 29.8C13.4731 29.8 9.26709 28.1686 9.26709 23.7798C9.26709 18.6746 13.4731 14.1475 19.3432 14.1475C25.2133 14.1475 29.5167 18.2894 29.5167 23.7798Z" fill="#F3D6DD"/>
<path d="M17.4003 22.9133C17.4003 24.3507 16.4777 25.9275 15.1884 25.9275C13.8991 25.9275 11.8164 24.7563 11.8164 22.6092C11.8164 20.5921 14.0664 19.8748 16.3913 20.2431C17.8163 20.4689 17.4003 21.4759 17.4003 22.9133Z" fill="#222327"/>
<path d="M16.3219 22.7682C16.3219 22.9838 16.2571 23.1586 15.9328 23.1586C15.6086 23.1586 15.5438 22.9838 15.5438 22.7682C15.5438 22.5526 15.6735 22.3778 15.9328 22.3778C16.1922 22.3778 16.3219 22.5526 16.3219 22.7682Z" fill="white"/>
<path d="M21.3222 22.9133C21.3222 24.3507 22.2448 25.9275 23.5341 25.9275C24.8233 25.9275 26.9061 24.7563 26.9061 22.6092C26.9061 20.5921 24.6561 19.8748 22.3312 20.2431C20.9062 20.4689 21.3222 21.4759 21.3222 22.9133Z" fill="#222327"/>
<path d="M22.4015 22.7683C22.4015 22.9839 22.4664 23.1587 22.7906 23.1587C23.1148 23.1587 23.1797 22.9839 23.1797 22.7683C23.1797 22.5527 23.05 22.3779 22.7906 22.3779C22.5312 22.3779 22.4015 22.5527 22.4015 22.7683Z" fill="white"/>
<path d="M17.875 24.993C17.7964 24.8784 17.6399 24.8491 17.5253 24.9276C17.4107 25.0061 17.3815 25.1627 17.46 25.2773L17.6675 25.1351L17.875 24.993ZM19.3174 24.6836L19.5554 24.6021C19.5205 24.5004 19.4249 24.4321 19.3174 24.4321C19.21 24.4321 19.1144 24.5004 19.0795 24.6021L19.3174 24.6836ZM21.1749 25.2773C21.2534 25.1627 21.2242 25.0061 21.1096 24.9276C20.995 24.8491 20.8385 24.8784 20.7599 24.993L20.9674 25.1351L21.1749 25.2773ZM17.6675 25.1351L17.46 25.2773C17.5295 25.3787 17.6557 25.5146 17.8249 25.6269C17.9957 25.7402 18.2239 25.8381 18.4925 25.8381V25.5866V25.3351C18.3485 25.3351 18.2158 25.2826 18.103 25.2077C17.9886 25.1319 17.9086 25.042 17.875 24.993L17.6675 25.1351ZM18.4925 25.5866V25.8381C18.823 25.8381 19.0688 25.6024 19.2218 25.3994C19.3834 25.185 19.4975 24.934 19.5554 24.7651L19.3174 24.6836L19.0795 24.6021C19.0342 24.7342 18.9422 24.9347 18.8201 25.0966C18.6895 25.2699 18.5744 25.3351 18.4925 25.3351V25.5866ZM19.3174 24.6836L19.0795 24.7651C19.1374 24.934 19.2515 25.185 19.4131 25.3994C19.5661 25.6024 19.8119 25.8381 20.1424 25.8381V25.5866V25.3351C20.0605 25.3351 19.9454 25.2699 19.8148 25.0966C19.6927 24.9347 19.6006 24.7342 19.5554 24.6021L19.3174 24.6836ZM20.1424 25.5866V25.8381C20.411 25.8381 20.6392 25.7402 20.81 25.6269C20.9792 25.5146 21.1054 25.3787 21.1749 25.2773L20.9674 25.1351L20.7599 24.993C20.7263 25.042 20.6463 25.1319 20.5319 25.2077C20.4191 25.2826 20.2863 25.3351 20.1424 25.3351V25.5866Z" fill="#222327"/>
<path d="M20.6906 24.4512C20.6906 24.6604 19.7486 24.9267 19.4315 25.0104C19.3638 25.0283 19.2939 25.0283 19.2261 25.0104C18.9091 24.9267 17.967 24.6604 17.967 24.4512C17.967 24.1996 18.72 23.9307 19.3288 23.9307C19.9376 23.9307 20.6906 24.1996 20.6906 24.4512Z" fill="#222327"/>
<path d="M19.166 17.7595C15.3818 17.7595 13.9911 16.43 13.7661 15.6524L15.5661 13.6958L19.466 13.0186L24.8659 15.6524C24.5409 16.2795 22.9544 17.7595 19.166 17.7595Z" fill="#222327"/>
<path d="M19.6895 10.8359C27.5093 10.8359 33.2429 16.4314 33.2432 23.8486C33.2432 29.7779 27.5095 31.9824 19.6895 31.9824C11.8696 31.9824 6.2666 29.7778 6.2666 23.8486C6.26685 16.9519 11.8698 10.8361 19.6895 10.8359ZM19.3828 14.2197C13.6307 14.2197 9.5089 18.6984 9.50879 23.749C9.50879 28.0911 13.6306 29.7051 19.3828 29.7051C25.1348 29.705 29.3516 28.0909 29.3516 23.749C29.3515 18.3174 25.1347 14.22 19.3828 14.2197Z" fill="white"/>
</svg>
